<svg xmlns="http://www.w3.org/2000/svg" xmlSpace="preserve" viewBox="0 0 512 512">
    <path d="M197.676 421.001 78.031 301.362a171.647 171.647 0 0 1 17.784-10.716c6.591-3.443 13.189-6.376 19.856-8.801l100.32 100.317c3.35-11.007 5.569-22.71 6.716-35.624l-73.348-73.357c6.898-1.099 13.904-1.842 21.036-2.286 15.981-.986 32.557-.429 49.75.97a844.246 844.246 0 0 0-1.294-11.411c-1.082-8.898-2.133-18.265-3.03-27.963-5.883-.372-11.763-.67-17.65-.84-30.079-.873-60.442 1.624-90.546 11.75-15.028 5.076-29.971 12.025-44.622 21.247-14.628 9.205-29.005 20.713-43.034 34.742L.004 319.351l27.518 27.526 19.966-19.97a215.001 215.001 0 0 1 7.031-6.731L179.12 444.778c7.132-7.767 13.274-15.646 18.556-23.777z" className="st0" fill="#ff003c"/>
    <path d="M270.547 197.045c-.771-27.227 1.556-52.603 9.763-77.009 4.118-12.228 9.706-24.237 17.291-36.287 7.58-12.042 17.157-24.099 29.32-36.262l19.97-19.962L319.371 0l-19.977 19.97c-18.709 18.709-32.876 38.024-43.212 57.775-15.545 29.644-22.294 60.12-24.116 90.271-1.846 30.201 1.019 60.208 4.619 90.304 2.356 19.622 4.259 38.501 4.781 56.636.771 27.227-1.548 52.603-9.763 77.01-4.114 12.219-9.71 24.252-17.287 36.286-7.58 12.034-17.165 24.084-29.324 36.246l-19.97 19.978L192.641 512l19.973-19.977c18.718-18.709 32.88-38.024 43.225-57.767 15.536-29.643 22.288-60.111 24.108-90.28 1.838-30.192-1.023-60.208-4.619-90.304-2.361-19.622-4.264-38.492-4.781-56.627z" className="st0" fill="#ff003c"/>
    <path d="m484.479 165.114-19.962 19.962c-2.352 2.351-4.672 4.598-7.023 6.74L332.884 67.215c-7.128 7.766-13.245 15.622-18.555 23.767l119.664 119.673c-5.948 4.032-11.864 7.588-17.804 10.684a162.647 162.647 0 0 1-19.856 8.808l-100.32-100.324c-3.35 11.007-5.564 22.726-6.716 35.632l73.377 73.373c-6.901 1.099-13.924 1.818-21.06 2.271-15.985.978-32.553.461-49.778-.954.449 3.919.873 7.718 1.322 11.386 1.078 8.906 2.134 18.257 3.035 27.962 5.903.404 11.778.695 17.67.873 30.063.841 60.41-1.665 90.514-11.783 15.064-5.051 29.983-12.009 44.626-21.238 14.628-9.213 29.012-20.721 43.034-34.743l19.962-19.97-27.52-27.518z" className="st0" fill="#ff003c"/>
  </svg>